<mxfile host="app.diagrams.net" modified="2023-09-03T07:05:54.355Z" agent="Mozilla/5.0 (Windows NT 10.0; Win64; x64) AppleWebKit/537.36 (KHTML, like Gecko) Chrome/116.0.0.0 Safari/537.36" etag="eUfgB1swAKc4nASRVPVR" version="21.6.9" type="device">
  <diagram name="Страница — 1" id="-wL8EBNOefbxbOeH-bGI">
    <mxGraphModel dx="1816" dy="606" grid="1" gridSize="10" guides="1" tooltips="1" connect="1" arrows="1" fold="1" page="1" pageScale="1" pageWidth="827" pageHeight="1169" math="0" shadow="0">
      <root>
        <mxCell id="0" />
        <mxCell id="1" parent="0" />
        <mxCell id="82LKOW4DZEkzBoe8ajo4-2" value="PUT&lt;br&gt;Device" style="shape=umlLifeline;perimeter=lifelinePerimeter;whiteSpace=wrap;html=1;container=1;dropTarget=0;collapsible=0;recursiveResize=0;outlineConnect=0;portConstraint=eastwest;newEdgeStyle={&quot;edgeStyle&quot;:&quot;elbowEdgeStyle&quot;,&quot;elbow&quot;:&quot;vertical&quot;,&quot;curved&quot;:0,&quot;rounded&quot;:0};strokeWidth=3;" parent="1" vertex="1">
          <mxGeometry x="-20" y="160" width="100" height="770" as="geometry" />
        </mxCell>
        <mxCell id="82LKOW4DZEkzBoe8ajo4-3" value="GET&lt;br&gt;Session" style="shape=umlLifeline;perimeter=lifelinePerimeter;whiteSpace=wrap;html=1;container=1;dropTarget=0;collapsible=0;recursiveResize=0;outlineConnect=0;portConstraint=eastwest;newEdgeStyle={&quot;edgeStyle&quot;:&quot;elbowEdgeStyle&quot;,&quot;elbow&quot;:&quot;vertical&quot;,&quot;curved&quot;:0,&quot;rounded&quot;:0};strokeWidth=4;" parent="1" vertex="1">
          <mxGeometry x="380" y="160" width="100" height="770" as="geometry" />
        </mxCell>
        <mxCell id="82LKOW4DZEkzBoe8ajo4-4" value="GET&lt;br&gt;Reptort" style="shape=umlLifeline;perimeter=lifelinePerimeter;whiteSpace=wrap;html=1;container=1;dropTarget=0;collapsible=0;recursiveResize=0;outlineConnect=0;portConstraint=eastwest;newEdgeStyle={&quot;edgeStyle&quot;:&quot;elbowEdgeStyle&quot;,&quot;elbow&quot;:&quot;vertical&quot;,&quot;curved&quot;:0,&quot;rounded&quot;:0};strokeWidth=4;" parent="1" vertex="1">
          <mxGeometry x="770" y="160" width="100" height="770" as="geometry" />
        </mxCell>
        <mxCell id="82LKOW4DZEkzBoe8ajo4-5" value="POST EventsBatch" style="shape=umlLifeline;perimeter=lifelinePerimeter;whiteSpace=wrap;html=1;container=1;dropTarget=0;collapsible=0;recursiveResize=0;outlineConnect=0;portConstraint=eastwest;newEdgeStyle={&quot;edgeStyle&quot;:&quot;elbowEdgeStyle&quot;,&quot;elbow&quot;:&quot;vertical&quot;,&quot;curved&quot;:0,&quot;rounded&quot;:0};strokeWidth=4;" parent="1" vertex="1">
          <mxGeometry x="1110" y="160" width="100" height="770" as="geometry" />
        </mxCell>
        <mxCell id="82LKOW4DZEkzBoe8ajo4-20" style="edgeStyle=orthogonalEdgeStyle;rounded=0;orthogonalLoop=1;jettySize=auto;html=1;entryX=0.5;entryY=1;entryDx=0;entryDy=0;strokeColor=#66B2FF;" parent="1" source="82LKOW4DZEkzBoe8ajo4-12" target="82LKOW4DZEkzBoe8ajo4-17" edge="1">
          <mxGeometry relative="1" as="geometry" />
        </mxCell>
        <mxCell id="82LKOW4DZEkzBoe8ajo4-23" value="YES" style="edgeLabel;html=1;align=center;verticalAlign=middle;resizable=0;points=[];" parent="82LKOW4DZEkzBoe8ajo4-20" vertex="1" connectable="0">
          <mxGeometry x="-0.2417" y="-2" relative="1" as="geometry">
            <mxPoint as="offset" />
          </mxGeometry>
        </mxCell>
        <mxCell id="82LKOW4DZEkzBoe8ajo4-22" style="edgeStyle=orthogonalEdgeStyle;rounded=0;orthogonalLoop=1;jettySize=auto;html=1;entryX=0;entryY=0.5;entryDx=0;entryDy=0;strokeColor=#FF0000;" parent="1" source="82LKOW4DZEkzBoe8ajo4-12" target="82LKOW4DZEkzBoe8ajo4-21" edge="1">
          <mxGeometry relative="1" as="geometry">
            <Array as="points">
              <mxPoint x="210" y="835" />
            </Array>
          </mxGeometry>
        </mxCell>
        <mxCell id="82LKOW4DZEkzBoe8ajo4-24" value="NO" style="edgeLabel;html=1;align=center;verticalAlign=middle;resizable=0;points=[];" parent="82LKOW4DZEkzBoe8ajo4-22" vertex="1" connectable="0">
          <mxGeometry x="-0.7518" y="-1" relative="1" as="geometry">
            <mxPoint x="21" y="-193" as="offset" />
          </mxGeometry>
        </mxCell>
        <mxCell id="82LKOW4DZEkzBoe8ajo4-82" value="&lt;b&gt;&lt;font color=&quot;#ff0000&quot;&gt;EXIT&lt;/font&gt;&lt;/b&gt;" style="edgeLabel;html=1;align=center;verticalAlign=middle;resizable=0;points=[];" parent="82LKOW4DZEkzBoe8ajo4-22" vertex="1" connectable="0">
          <mxGeometry x="0.1433" y="-2" relative="1" as="geometry">
            <mxPoint x="12" as="offset" />
          </mxGeometry>
        </mxCell>
        <mxCell id="82LKOW4DZEkzBoe8ajo4-12" value="Attempts?" style="rhombus;whiteSpace=wrap;html=1;fontColor=#000000;fillColor=#ffffc0;strokeColor=#66B2FF;" parent="1" vertex="1">
          <mxGeometry x="160" y="260" width="100" height="60" as="geometry" />
        </mxCell>
        <mxCell id="82LKOW4DZEkzBoe8ajo4-17" value="Timeout" style="rounded=1;whiteSpace=wrap;html=1;arcSize=40;fontColor=#000000;fillColor=#ffffc0;strokeColor=#66B2FF;" parent="1" vertex="1">
          <mxGeometry x="150" y="190" width="120" height="40" as="geometry" />
        </mxCell>
        <mxCell id="82LKOW4DZEkzBoe8ajo4-18" value="" style="edgeStyle=orthogonalEdgeStyle;html=1;verticalAlign=bottom;endArrow=open;endSize=8;strokeColor=#66B2FF;rounded=0;exitX=0.5;exitY=0;exitDx=0;exitDy=0;" parent="1" source="82LKOW4DZEkzBoe8ajo4-17" target="82LKOW4DZEkzBoe8ajo4-2" edge="1">
          <mxGeometry relative="1" as="geometry">
            <mxPoint x="210" y="280" as="targetPoint" />
            <Array as="points">
              <mxPoint x="210" y="140" />
              <mxPoint x="-70" y="140" />
              <mxPoint x="-70" y="240" />
            </Array>
          </mxGeometry>
        </mxCell>
        <mxCell id="82LKOW4DZEkzBoe8ajo4-19" value="&lt;font color=&quot;#66b2ff&quot;&gt;&lt;b&gt;500&lt;/b&gt;&lt;/font&gt;" style="html=1;verticalAlign=bottom;startArrow=oval;startFill=1;endArrow=block;startSize=8;edgeStyle=elbowEdgeStyle;elbow=vertical;curved=0;rounded=0;entryX=0;entryY=0.5;entryDx=0;entryDy=0;strokeColor=#66B2FF;" parent="1" target="82LKOW4DZEkzBoe8ajo4-12" edge="1">
          <mxGeometry width="60" relative="1" as="geometry">
            <mxPoint x="30" y="290" as="sourcePoint" />
            <mxPoint x="90" y="350" as="targetPoint" />
            <Array as="points">
              <mxPoint x="110" y="290" />
            </Array>
          </mxGeometry>
        </mxCell>
        <mxCell id="82LKOW4DZEkzBoe8ajo4-21" value="" style="ellipse;html=1;shape=endState;fillColor=#000000;strokeColor=#ff0000;" parent="1" vertex="1">
          <mxGeometry x="1060" y="820" width="30" height="30" as="geometry" />
        </mxCell>
        <mxCell id="82LKOW4DZEkzBoe8ajo4-25" style="edgeStyle=orthogonalEdgeStyle;rounded=0;orthogonalLoop=1;jettySize=auto;html=1;entryX=0.5;entryY=1;entryDx=0;entryDy=0;strokeColor=#66B2FF;" parent="1" source="82LKOW4DZEkzBoe8ajo4-27" target="82LKOW4DZEkzBoe8ajo4-28" edge="1">
          <mxGeometry relative="1" as="geometry" />
        </mxCell>
        <mxCell id="82LKOW4DZEkzBoe8ajo4-26" value="YES" style="edgeLabel;html=1;align=center;verticalAlign=middle;resizable=0;points=[];" parent="82LKOW4DZEkzBoe8ajo4-25" vertex="1" connectable="0">
          <mxGeometry x="-0.2417" y="-2" relative="1" as="geometry">
            <mxPoint as="offset" />
          </mxGeometry>
        </mxCell>
        <mxCell id="82LKOW4DZEkzBoe8ajo4-31" style="edgeStyle=orthogonalEdgeStyle;rounded=0;orthogonalLoop=1;jettySize=auto;html=1;entryX=0;entryY=0.5;entryDx=0;entryDy=0;strokeColor=#FF0000;" parent="1" source="82LKOW4DZEkzBoe8ajo4-27" target="82LKOW4DZEkzBoe8ajo4-21" edge="1">
          <mxGeometry relative="1" as="geometry">
            <Array as="points">
              <mxPoint x="600" y="835" />
            </Array>
          </mxGeometry>
        </mxCell>
        <mxCell id="82LKOW4DZEkzBoe8ajo4-81" value="&lt;b&gt;&lt;font color=&quot;#ff0000&quot;&gt;EXIT&lt;/font&gt;&lt;/b&gt;" style="edgeLabel;html=1;align=center;verticalAlign=middle;resizable=0;points=[];" parent="82LKOW4DZEkzBoe8ajo4-31" vertex="1" connectable="0">
          <mxGeometry x="0.6517" relative="1" as="geometry">
            <mxPoint as="offset" />
          </mxGeometry>
        </mxCell>
        <mxCell id="82LKOW4DZEkzBoe8ajo4-27" value="Attempts?" style="rhombus;whiteSpace=wrap;html=1;fontColor=#000000;fillColor=#ffffc0;strokeColor=#66B2FF;" parent="1" vertex="1">
          <mxGeometry x="550" y="360" width="100" height="60" as="geometry" />
        </mxCell>
        <mxCell id="82LKOW4DZEkzBoe8ajo4-30" style="edgeStyle=orthogonalEdgeStyle;rounded=0;orthogonalLoop=1;jettySize=auto;html=1;exitX=0.5;exitY=0;exitDx=0;exitDy=0;strokeColor=#66B2FF;" parent="1" source="82LKOW4DZEkzBoe8ajo4-28" target="82LKOW4DZEkzBoe8ajo4-3" edge="1">
          <mxGeometry relative="1" as="geometry">
            <Array as="points">
              <mxPoint x="600" y="130" />
              <mxPoint x="350" y="130" />
              <mxPoint x="350" y="370" />
            </Array>
          </mxGeometry>
        </mxCell>
        <mxCell id="82LKOW4DZEkzBoe8ajo4-28" value="Timeout" style="rounded=1;whiteSpace=wrap;html=1;arcSize=40;fontColor=#000000;fillColor=#ffffc0;strokeColor=#66B2FF;" parent="1" vertex="1">
          <mxGeometry x="540" y="190" width="120" height="40" as="geometry" />
        </mxCell>
        <mxCell id="82LKOW4DZEkzBoe8ajo4-29" value="&lt;b&gt;&lt;font color=&quot;#66b2ff&quot;&gt;500&lt;/font&gt;&lt;/b&gt;" style="html=1;verticalAlign=bottom;startArrow=oval;startFill=1;endArrow=block;startSize=8;edgeStyle=elbowEdgeStyle;elbow=vertical;curved=0;rounded=0;entryX=0;entryY=0.5;entryDx=0;entryDy=0;strokeColor=#66B2FF;" parent="1" target="82LKOW4DZEkzBoe8ajo4-27" edge="1">
          <mxGeometry x="-0.0041" width="60" relative="1" as="geometry">
            <mxPoint x="430" y="390.3" as="sourcePoint" />
            <mxPoint x="555.7999999999997" y="390.00000000000006" as="targetPoint" />
            <Array as="points" />
            <mxPoint as="offset" />
          </mxGeometry>
        </mxCell>
        <mxCell id="82LKOW4DZEkzBoe8ajo4-32" value="&lt;font color=&quot;#ff0000&quot;&gt;&lt;b&gt;404: DataBase&lt;/b&gt;&lt;/font&gt;" style="html=1;verticalAlign=bottom;startArrow=oval;startFill=1;endArrow=block;startSize=8;edgeStyle=elbowEdgeStyle;elbow=vertical;curved=0;rounded=0;strokeColor=#FF0000;" parent="1" edge="1">
          <mxGeometry width="60" relative="1" as="geometry">
            <mxPoint x="30" y="330" as="sourcePoint" />
            <mxPoint x="210" y="330" as="targetPoint" />
          </mxGeometry>
        </mxCell>
        <mxCell id="82LKOW4DZEkzBoe8ajo4-33" value="&lt;b&gt;&lt;font color=&quot;#00cc00&quot;&gt;200, 201&lt;/font&gt;&lt;/b&gt;" style="html=1;verticalAlign=bottom;startArrow=oval;startFill=1;endArrow=block;startSize=8;edgeStyle=elbowEdgeStyle;elbow=vertical;curved=0;rounded=0;strokeColor=#00CC00;" parent="1" edge="1">
          <mxGeometry width="60" relative="1" as="geometry">
            <mxPoint x="29.81034482758605" y="370.21137931034485" as="sourcePoint" />
            <mxPoint x="429.5" y="370.21137931034485" as="targetPoint" />
          </mxGeometry>
        </mxCell>
        <mxCell id="82LKOW4DZEkzBoe8ajo4-34" value="&lt;font color=&quot;#ff0000&quot;&gt;&lt;b&gt;404: DataBase&lt;/b&gt;&lt;/font&gt;" style="html=1;verticalAlign=bottom;startArrow=oval;startFill=1;endArrow=block;startSize=8;edgeStyle=elbowEdgeStyle;elbow=vertical;curved=0;rounded=0;strokeColor=#FF0000;" parent="1" edge="1">
          <mxGeometry width="60" relative="1" as="geometry">
            <mxPoint x="430" y="440.28" as="sourcePoint" />
            <mxPoint x="600" y="440" as="targetPoint" />
          </mxGeometry>
        </mxCell>
        <mxCell id="82LKOW4DZEkzBoe8ajo4-35" value="&lt;b&gt;&lt;font color=&quot;#00cc00&quot;&gt;201&lt;/font&gt;&lt;/b&gt;" style="html=1;verticalAlign=bottom;startArrow=oval;startFill=1;endArrow=block;startSize=8;edgeStyle=elbowEdgeStyle;elbow=vertical;curved=0;rounded=0;strokeColor=#00CC00;" parent="1" edge="1">
          <mxGeometry width="60" relative="1" as="geometry">
            <mxPoint x="429.6666666666665" y="460" as="sourcePoint" />
            <mxPoint x="820" y="460" as="targetPoint" />
            <Array as="points">
              <mxPoint x="530" y="460" />
              <mxPoint x="820" y="490" />
            </Array>
          </mxGeometry>
        </mxCell>
        <mxCell id="82LKOW4DZEkzBoe8ajo4-37" value="" style="endArrow=classic;html=1;rounded=0;strokeColor=#FF0000;" parent="1" source="82LKOW4DZEkzBoe8ajo4-3" edge="1">
          <mxGeometry width="50" height="50" relative="1" as="geometry">
            <mxPoint x="429.5" y="430" as="sourcePoint" />
            <mxPoint x="29.5" y="230" as="targetPoint" />
            <Array as="points">
              <mxPoint x="310" y="440" />
              <mxPoint x="310" y="120" />
              <mxPoint x="120" y="120" />
              <mxPoint x="-80" y="120" />
              <mxPoint x="-80" y="150" />
              <mxPoint x="-80" y="230" />
            </Array>
          </mxGeometry>
        </mxCell>
        <mxCell id="82LKOW4DZEkzBoe8ajo4-38" value="&lt;b&gt;&lt;font color=&quot;#ff0000&quot;&gt;404: DeviceId&lt;/font&gt;&lt;/b&gt;" style="edgeLabel;html=1;align=center;verticalAlign=middle;resizable=0;points=[];" parent="82LKOW4DZEkzBoe8ajo4-37" vertex="1" connectable="0">
          <mxGeometry x="-0.8576" y="-1" relative="1" as="geometry">
            <mxPoint x="16" y="-9" as="offset" />
          </mxGeometry>
        </mxCell>
        <mxCell id="82LKOW4DZEkzBoe8ajo4-49" style="edgeStyle=orthogonalEdgeStyle;rounded=0;orthogonalLoop=1;jettySize=auto;html=1;entryX=0.5;entryY=1;entryDx=0;entryDy=0;strokeColor=#66B2FF;" parent="1" source="82LKOW4DZEkzBoe8ajo4-52" target="82LKOW4DZEkzBoe8ajo4-59" edge="1">
          <mxGeometry relative="1" as="geometry">
            <mxPoint x="990" y="320" as="targetPoint" />
          </mxGeometry>
        </mxCell>
        <mxCell id="82LKOW4DZEkzBoe8ajo4-50" value="YES" style="edgeLabel;html=1;align=center;verticalAlign=middle;resizable=0;points=[];" parent="82LKOW4DZEkzBoe8ajo4-49" vertex="1" connectable="0">
          <mxGeometry x="-0.2417" y="-2" relative="1" as="geometry">
            <mxPoint as="offset" />
          </mxGeometry>
        </mxCell>
        <mxCell id="82LKOW4DZEkzBoe8ajo4-51" style="edgeStyle=orthogonalEdgeStyle;rounded=0;orthogonalLoop=1;jettySize=auto;html=1;entryX=0;entryY=0.5;entryDx=0;entryDy=0;strokeColor=#FF0000;" parent="1" source="82LKOW4DZEkzBoe8ajo4-52" target="82LKOW4DZEkzBoe8ajo4-21" edge="1">
          <mxGeometry relative="1" as="geometry">
            <mxPoint x="1450" y="1175" as="targetPoint" />
            <Array as="points">
              <mxPoint x="990" y="835" />
            </Array>
          </mxGeometry>
        </mxCell>
        <mxCell id="82LKOW4DZEkzBoe8ajo4-52" value="Attempts?" style="rhombus;whiteSpace=wrap;html=1;fontColor=#000000;fillColor=#ffffc0;strokeColor=#66B2FF;" parent="1" vertex="1">
          <mxGeometry x="940" y="450" width="100" height="60" as="geometry" />
        </mxCell>
        <mxCell id="82LKOW4DZEkzBoe8ajo4-53" style="edgeStyle=orthogonalEdgeStyle;rounded=0;orthogonalLoop=1;jettySize=auto;html=1;exitX=0.5;exitY=0;exitDx=0;exitDy=0;strokeColor=#66B2FF;" parent="1" source="82LKOW4DZEkzBoe8ajo4-59" edge="1">
          <mxGeometry relative="1" as="geometry">
            <mxPoint x="990" y="280" as="sourcePoint" />
            <mxPoint x="820" y="460" as="targetPoint" />
            <Array as="points">
              <mxPoint x="990" y="140" />
              <mxPoint x="740" y="140" />
              <mxPoint x="740" y="460" />
            </Array>
          </mxGeometry>
        </mxCell>
        <mxCell id="82LKOW4DZEkzBoe8ajo4-54" value="&lt;b&gt;&lt;font color=&quot;#66b2ff&quot;&gt;500&lt;/font&gt;&lt;/b&gt;" style="html=1;verticalAlign=bottom;startArrow=oval;startFill=1;endArrow=block;startSize=8;edgeStyle=elbowEdgeStyle;elbow=vertical;curved=0;rounded=0;entryX=0;entryY=0.5;entryDx=0;entryDy=0;strokeColor=#66B2FF;" parent="1" target="82LKOW4DZEkzBoe8ajo4-52" edge="1">
          <mxGeometry x="-0.0041" width="60" relative="1" as="geometry">
            <mxPoint x="820" y="480.3" as="sourcePoint" />
            <mxPoint x="945.7999999999997" y="480.00000000000006" as="targetPoint" />
            <Array as="points" />
            <mxPoint as="offset" />
          </mxGeometry>
        </mxCell>
        <mxCell id="82LKOW4DZEkzBoe8ajo4-55" value="&lt;font color=&quot;#ff0000&quot;&gt;&lt;b&gt;404: DataBase&lt;/b&gt;&lt;/font&gt;" style="html=1;verticalAlign=bottom;startArrow=oval;startFill=1;endArrow=block;startSize=8;edgeStyle=elbowEdgeStyle;elbow=vertical;curved=0;rounded=0;strokeColor=#FF0000;" parent="1" edge="1">
          <mxGeometry width="60" relative="1" as="geometry">
            <mxPoint x="820" y="530.28" as="sourcePoint" />
            <mxPoint x="990" y="530" as="targetPoint" />
          </mxGeometry>
        </mxCell>
        <mxCell id="82LKOW4DZEkzBoe8ajo4-56" value="&lt;b&gt;&lt;font color=&quot;#00cc00&quot;&gt;201&lt;/font&gt;&lt;/b&gt;" style="html=1;verticalAlign=bottom;startArrow=oval;startFill=1;endArrow=block;startSize=8;edgeStyle=elbowEdgeStyle;elbow=vertical;curved=0;rounded=0;strokeColor=#00CC00;" parent="1" target="82LKOW4DZEkzBoe8ajo4-5" edge="1">
          <mxGeometry width="60" relative="1" as="geometry">
            <mxPoint x="819.6666666666665" y="550" as="sourcePoint" />
            <mxPoint x="1210" y="550" as="targetPoint" />
            <Array as="points">
              <mxPoint x="920" y="550" />
              <mxPoint x="1210" y="580" />
            </Array>
          </mxGeometry>
        </mxCell>
        <mxCell id="82LKOW4DZEkzBoe8ajo4-57" value="" style="endArrow=classic;html=1;rounded=0;strokeColor=#FF0000;" parent="1" target="82LKOW4DZEkzBoe8ajo4-3" edge="1">
          <mxGeometry width="50" height="50" relative="1" as="geometry">
            <mxPoint x="819.5" y="530" as="sourcePoint" />
            <mxPoint x="429.5" y="320" as="targetPoint" />
            <Array as="points">
              <mxPoint x="700" y="530" />
              <mxPoint x="700" y="120" />
              <mxPoint x="330" y="120" />
              <mxPoint x="330" y="240" />
              <mxPoint x="330" y="380" />
            </Array>
          </mxGeometry>
        </mxCell>
        <mxCell id="82LKOW4DZEkzBoe8ajo4-58" value="&lt;b&gt;&lt;font color=&quot;#ff0000&quot;&gt;404: SessionId&lt;/font&gt;&lt;/b&gt;" style="edgeLabel;html=1;align=center;verticalAlign=middle;resizable=0;points=[];" parent="82LKOW4DZEkzBoe8ajo4-57" vertex="1" connectable="0">
          <mxGeometry x="-0.8576" y="-1" relative="1" as="geometry">
            <mxPoint x="16" y="-9" as="offset" />
          </mxGeometry>
        </mxCell>
        <mxCell id="82LKOW4DZEkzBoe8ajo4-59" value="Timeout" style="rounded=1;whiteSpace=wrap;html=1;arcSize=40;fontColor=#000000;fillColor=#ffffc0;strokeColor=#66B2FF;" parent="1" vertex="1">
          <mxGeometry x="930" y="280" width="120" height="40" as="geometry" />
        </mxCell>
        <mxCell id="82LKOW4DZEkzBoe8ajo4-60" style="edgeStyle=orthogonalEdgeStyle;rounded=0;orthogonalLoop=1;jettySize=auto;html=1;entryX=0.5;entryY=1;entryDx=0;entryDy=0;strokeColor=#66B2FF;" parent="1" source="82LKOW4DZEkzBoe8ajo4-63" target="82LKOW4DZEkzBoe8ajo4-66" edge="1">
          <mxGeometry relative="1" as="geometry">
            <mxPoint x="1331" y="410" as="targetPoint" />
          </mxGeometry>
        </mxCell>
        <mxCell id="82LKOW4DZEkzBoe8ajo4-61" value="YES" style="edgeLabel;html=1;align=center;verticalAlign=middle;resizable=0;points=[];" parent="82LKOW4DZEkzBoe8ajo4-60" vertex="1" connectable="0">
          <mxGeometry x="-0.2417" y="-2" relative="1" as="geometry">
            <mxPoint as="offset" />
          </mxGeometry>
        </mxCell>
        <mxCell id="82LKOW4DZEkzBoe8ajo4-62" style="edgeStyle=orthogonalEdgeStyle;rounded=0;orthogonalLoop=1;jettySize=auto;html=1;entryX=1;entryY=0.5;entryDx=0;entryDy=0;strokeColor=#FF0000;" parent="1" source="82LKOW4DZEkzBoe8ajo4-63" target="82LKOW4DZEkzBoe8ajo4-21" edge="1">
          <mxGeometry relative="1" as="geometry">
            <mxPoint x="1401" y="1175" as="targetPoint" />
            <Array as="points">
              <mxPoint x="1331" y="835" />
            </Array>
          </mxGeometry>
        </mxCell>
        <mxCell id="82LKOW4DZEkzBoe8ajo4-79" value="&lt;b&gt;&lt;font color=&quot;#ff0000&quot;&gt;EXIT&lt;/font&gt;&lt;/b&gt;" style="edgeLabel;html=1;align=center;verticalAlign=middle;resizable=0;points=[];" parent="82LKOW4DZEkzBoe8ajo4-62" vertex="1" connectable="0">
          <mxGeometry x="0.6766" y="-2" relative="1" as="geometry">
            <mxPoint x="23" y="2" as="offset" />
          </mxGeometry>
        </mxCell>
        <mxCell id="82LKOW4DZEkzBoe8ajo4-63" value="Attempts?" style="rhombus;whiteSpace=wrap;html=1;fontColor=#000000;fillColor=#ffffc0;strokeColor=#66B2FF;" parent="1" vertex="1">
          <mxGeometry x="1281" y="540" width="100" height="60" as="geometry" />
        </mxCell>
        <mxCell id="82LKOW4DZEkzBoe8ajo4-64" style="edgeStyle=orthogonalEdgeStyle;rounded=0;orthogonalLoop=1;jettySize=auto;html=1;exitX=0.5;exitY=0;exitDx=0;exitDy=0;strokeColor=#66B2FF;" parent="1" source="82LKOW4DZEkzBoe8ajo4-66" target="82LKOW4DZEkzBoe8ajo4-5" edge="1">
          <mxGeometry relative="1" as="geometry">
            <mxPoint x="1331" y="370" as="sourcePoint" />
            <mxPoint x="1161" y="550" as="targetPoint" />
            <Array as="points">
              <mxPoint x="1331" y="140" />
              <mxPoint x="1081" y="140" />
              <mxPoint x="1081" y="550" />
            </Array>
          </mxGeometry>
        </mxCell>
        <mxCell id="82LKOW4DZEkzBoe8ajo4-65" value="&lt;b&gt;&lt;font color=&quot;#66b2ff&quot;&gt;500&lt;/font&gt;&lt;/b&gt;" style="html=1;verticalAlign=bottom;startArrow=oval;startFill=1;endArrow=block;startSize=8;edgeStyle=elbowEdgeStyle;elbow=vertical;curved=0;rounded=0;entryX=0;entryY=0.5;entryDx=0;entryDy=0;strokeColor=#66B2FF;" parent="1" target="82LKOW4DZEkzBoe8ajo4-63" edge="1">
          <mxGeometry x="-0.0041" width="60" relative="1" as="geometry">
            <mxPoint x="1161" y="570.3" as="sourcePoint" />
            <mxPoint x="1286.7999999999997" y="570" as="targetPoint" />
            <Array as="points" />
            <mxPoint as="offset" />
          </mxGeometry>
        </mxCell>
        <mxCell id="82LKOW4DZEkzBoe8ajo4-66" value="Timeout" style="rounded=1;whiteSpace=wrap;html=1;arcSize=40;fontColor=#000000;fillColor=#ffffc0;strokeColor=#66B2FF;" parent="1" vertex="1">
          <mxGeometry x="1271" y="370" width="120" height="40" as="geometry" />
        </mxCell>
        <mxCell id="82LKOW4DZEkzBoe8ajo4-67" value="&lt;font color=&quot;#ff0000&quot;&gt;&lt;b&gt;404: DataBase&lt;/b&gt;&lt;/font&gt;" style="html=1;verticalAlign=bottom;startArrow=oval;startFill=1;endArrow=block;startSize=8;edgeStyle=elbowEdgeStyle;elbow=vertical;curved=0;rounded=0;strokeColor=#FF0000;" parent="1" source="82LKOW4DZEkzBoe8ajo4-5" edge="1">
          <mxGeometry width="60" relative="1" as="geometry">
            <mxPoint x="1160" y="610.28" as="sourcePoint" />
            <mxPoint x="1330" y="610" as="targetPoint" />
          </mxGeometry>
        </mxCell>
        <mxCell id="82LKOW4DZEkzBoe8ajo4-68" value="" style="endArrow=classic;html=1;rounded=0;strokeColor=#FF0000;" parent="1" target="82LKOW4DZEkzBoe8ajo4-4" edge="1">
          <mxGeometry width="50" height="50" relative="1" as="geometry">
            <mxPoint x="1169.5" y="610" as="sourcePoint" />
            <mxPoint x="778" y="460" as="targetPoint" />
            <Array as="points">
              <mxPoint x="1060" y="610" />
              <mxPoint x="1060" y="120" />
              <mxPoint x="720" y="120" />
              <mxPoint x="720" y="470" />
              <mxPoint x="770" y="470" />
            </Array>
          </mxGeometry>
        </mxCell>
        <mxCell id="82LKOW4DZEkzBoe8ajo4-69" value="&lt;b&gt;&lt;font color=&quot;#ff0000&quot;&gt;404: ReportId&lt;/font&gt;&lt;/b&gt;" style="edgeLabel;html=1;align=center;verticalAlign=middle;resizable=0;points=[];" parent="82LKOW4DZEkzBoe8ajo4-68" vertex="1" connectable="0">
          <mxGeometry x="-0.8576" y="-1" relative="1" as="geometry">
            <mxPoint x="16" y="-9" as="offset" />
          </mxGeometry>
        </mxCell>
        <mxCell id="82LKOW4DZEkzBoe8ajo4-72" value="" style="html=1;verticalAlign=bottom;startArrow=oval;startFill=1;endArrow=block;startSize=8;edgeStyle=elbowEdgeStyle;elbow=horizontal;curved=0;rounded=0;strokeColor=#00CC00;entryX=0;entryY=0.5;entryDx=0;entryDy=0;" parent="1" target="82LKOW4DZEkzBoe8ajo4-71" edge="1">
          <mxGeometry width="60" relative="1" as="geometry">
            <mxPoint x="1159.9966666666667" y="670" as="sourcePoint" />
            <mxPoint x="1378.16" y="670" as="targetPoint" />
            <Array as="points" />
          </mxGeometry>
        </mxCell>
        <mxCell id="82LKOW4DZEkzBoe8ajo4-74" value="&lt;b&gt;&lt;font color=&quot;#00cc00&quot;&gt;201&lt;/font&gt;&lt;/b&gt;" style="edgeLabel;html=1;align=center;verticalAlign=middle;resizable=0;points=[];" parent="82LKOW4DZEkzBoe8ajo4-72" vertex="1" connectable="0">
          <mxGeometry x="0.2739" y="1" relative="1" as="geometry">
            <mxPoint as="offset" />
          </mxGeometry>
        </mxCell>
        <mxCell id="82LKOW4DZEkzBoe8ajo4-73" style="edgeStyle=orthogonalEdgeStyle;rounded=0;orthogonalLoop=1;jettySize=auto;html=1;exitX=0.5;exitY=0;exitDx=0;exitDy=0;entryX=0.5;entryY=0.636;entryDx=0;entryDy=0;entryPerimeter=0;strokeColor=#00CC00;" parent="1" source="82LKOW4DZEkzBoe8ajo4-71" target="82LKOW4DZEkzBoe8ajo4-5" edge="1">
          <mxGeometry relative="1" as="geometry">
            <Array as="points">
              <mxPoint x="1420" y="620" />
              <mxPoint x="1140" y="620" />
              <mxPoint x="1140" y="650" />
            </Array>
          </mxGeometry>
        </mxCell>
        <mxCell id="82LKOW4DZEkzBoe8ajo4-75" value="&lt;b&gt;&lt;font color=&quot;#00cc00&quot;&gt;NEXT&lt;/font&gt;&lt;/b&gt;" style="edgeLabel;html=1;align=center;verticalAlign=middle;resizable=0;points=[];" parent="82LKOW4DZEkzBoe8ajo4-73" vertex="1" connectable="0">
          <mxGeometry x="-0.2636" y="2" relative="1" as="geometry">
            <mxPoint x="-21" y="-2" as="offset" />
          </mxGeometry>
        </mxCell>
        <mxCell id="82LKOW4DZEkzBoe8ajo4-76" style="edgeStyle=orthogonalEdgeStyle;rounded=0;orthogonalLoop=1;jettySize=auto;html=1;exitX=0.5;exitY=1;exitDx=0;exitDy=0;entryX=0.5;entryY=0;entryDx=0;entryDy=0;strokeColor=#00CC00;" parent="1" source="82LKOW4DZEkzBoe8ajo4-71" target="82LKOW4DZEkzBoe8ajo4-21" edge="1">
          <mxGeometry relative="1" as="geometry">
            <Array as="points">
              <mxPoint x="1420" y="770" />
              <mxPoint x="1075" y="770" />
            </Array>
          </mxGeometry>
        </mxCell>
        <mxCell id="82LKOW4DZEkzBoe8ajo4-77" value="&lt;b&gt;&lt;font color=&quot;#00cc00&quot;&gt;EXIT&lt;/font&gt;&lt;/b&gt;" style="edgeLabel;html=1;align=center;verticalAlign=middle;resizable=0;points=[];" parent="82LKOW4DZEkzBoe8ajo4-76" vertex="1" connectable="0">
          <mxGeometry x="-0.5142" y="2" relative="1" as="geometry">
            <mxPoint as="offset" />
          </mxGeometry>
        </mxCell>
        <mxCell id="82LKOW4DZEkzBoe8ajo4-78" value="&lt;b&gt;&lt;font color=&quot;#00cc00&quot;&gt;EXIT&lt;/font&gt;&lt;/b&gt;" style="edgeLabel;html=1;align=center;verticalAlign=middle;resizable=0;points=[];" parent="82LKOW4DZEkzBoe8ajo4-76" vertex="1" connectable="0">
          <mxGeometry x="0.3198" y="4" relative="1" as="geometry">
            <mxPoint x="3" y="-4" as="offset" />
          </mxGeometry>
        </mxCell>
        <mxCell id="82LKOW4DZEkzBoe8ajo4-71" value="Any one?" style="rhombus;whiteSpace=wrap;html=1;fontColor=#000000;fillColor=#ffffc0;strokeColor=#00CC00;" parent="1" vertex="1">
          <mxGeometry x="1370" y="640" width="100" height="60" as="geometry" />
        </mxCell>
        <mxCell id="0gG0E9hw8vwdrukU39Jc-1" value="&lt;font color=&quot;#ff0000&quot;&gt;&lt;b&gt;ХХХ: &amp;lt;default&amp;gt;&lt;/b&gt;&lt;/font&gt;" style="html=1;verticalAlign=bottom;startArrow=oval;startFill=1;endArrow=block;startSize=8;edgeStyle=elbowEdgeStyle;elbow=vertical;curved=0;rounded=0;strokeColor=#FF0000;" edge="1" parent="1">
          <mxGeometry width="60" relative="1" as="geometry">
            <mxPoint x="30" y="410" as="sourcePoint" />
            <mxPoint x="210" y="410" as="targetPoint" />
          </mxGeometry>
        </mxCell>
        <mxCell id="0gG0E9hw8vwdrukU39Jc-2" value="&lt;font color=&quot;#ff0000&quot;&gt;&lt;b&gt;ХХХ: &amp;lt;default&amp;gt;&lt;/b&gt;&lt;/font&gt;" style="html=1;verticalAlign=bottom;startArrow=oval;startFill=1;endArrow=block;startSize=8;edgeStyle=elbowEdgeStyle;elbow=vertical;curved=0;rounded=0;strokeColor=#FF0000;" edge="1" parent="1">
          <mxGeometry width="60" relative="1" as="geometry">
            <mxPoint x="430" y="490" as="sourcePoint" />
            <mxPoint x="600" y="490" as="targetPoint" />
          </mxGeometry>
        </mxCell>
        <mxCell id="0gG0E9hw8vwdrukU39Jc-3" value="&lt;font color=&quot;#ff0000&quot;&gt;&lt;b&gt;ХХХ: &amp;lt;default&amp;gt;&lt;/b&gt;&lt;/font&gt;" style="html=1;verticalAlign=bottom;startArrow=oval;startFill=1;endArrow=block;startSize=8;edgeStyle=elbowEdgeStyle;elbow=vertical;curved=0;rounded=0;strokeColor=#FF0000;" edge="1" parent="1">
          <mxGeometry width="60" relative="1" as="geometry">
            <mxPoint x="820" y="584.33" as="sourcePoint" />
            <mxPoint x="990" y="584" as="targetPoint" />
          </mxGeometry>
        </mxCell>
        <mxCell id="0gG0E9hw8vwdrukU39Jc-4" value="&lt;font color=&quot;#ff0000&quot;&gt;&lt;b&gt;ХХХ: &amp;lt;default&amp;gt;&lt;/b&gt;&lt;/font&gt;" style="html=1;verticalAlign=bottom;startArrow=oval;startFill=1;endArrow=block;startSize=8;edgeStyle=elbowEdgeStyle;elbow=vertical;curved=0;rounded=0;strokeColor=#FF0000;" edge="1" parent="1">
          <mxGeometry width="60" relative="1" as="geometry">
            <mxPoint x="1160" y="710.3299999999999" as="sourcePoint" />
            <mxPoint x="1330" y="710" as="targetPoint" />
          </mxGeometry>
        </mxCell>
      </root>
    </mxGraphModel>
  </diagram>
</mxfile>
